<?xml version="1.0" encoding="utf-8"?>
<!-- Generator: Adobe Illustrator 16.0.0, SVG Export Plug-In . SVG Version: 6.00 Build 0)  -->
<!DOCTYPE svg PUBLIC "-//W3C//DTD SVG 1.1//EN" "http://www.w3.org/Graphics/SVG/1.1/DTD/svg11.dtd">
<svg version="1.1" id="Layer_1" xmlns="http://www.w3.org/2000/svg" xmlns:xlink="http://www.w3.org/1999/xlink" x="0px" y="0px"
	 width="1000px" height="1000px" viewBox="0 0 1000 1000" enable-background="new 0 0 1000 1000" xml:space="preserve">
<path d="M502.148,991.992c-269.336,0-486.719-219.727-485.547-492.969C17.773,228.32,236.133,9.375,507.031,12.109
	c265.625,2.539,482.422,220.312,480.273,494.336C985.156,775.586,769.336,991.211,502.148,991.992z M501.953,50.586
	C259.57,49.805,57.227,247.266,54.883,497.07C52.344,751.562,255.664,950.977,497.07,953.516
	c245.898,2.539,450.586-196.484,451.758-447.656C950.195,252.734,750.586,50.586,501.953,50.586z"/>
<path fill="#F6F4EC" d="M758.008,279.297c-32.227,24.023-64.453,48.047-96.875,72.07c-51.172,37.891-102.539,75.391-153.711,113.281
	c-4.688,3.516-7.422,3.906-12.305,0.195c-82.031-61.133-164.258-121.875-246.484-182.812c-0.977-0.781-1.758-1.758-2.734-2.734
	c106.641,0,213.281-0.195,320.117-0.195C629.883,279.297,693.945,279.297,758.008,279.297z"/>
<rect x="261.719" y="392.188" fill="#F6F4EC" width="478.711" height="332.422"/>
<path d="M740.43,724.609c0-109.961,0-219.922-0.195-329.883c21.484-15.43,42.773-30.664,64.258-46.094
	c1.758-1.367,3.516-2.93,6.055-2.93c0.195,36.133,0.391,72.07,0.391,108.203c0,70.508,0,141.016,0,211.523
	c0,4.883,0,9.766-0.195,14.648c-1.172,24.219-12.891,37.891-36.328,42.383C763.086,724.609,751.758,725.977,740.43,724.609z"/>
<path d="M758.008,279.297c26.172-2.734,50.781,18.164,52.539,44.727c0.391,7.031,0,14.258,0,21.484c-2.344,0-4.102,1.562-6.055,2.93
	c-21.484,15.43-42.773,30.664-64.258,46.094c-71.68,49.219-143.359,98.242-214.844,147.656c-7.422,5.078-15.82,8.984-21.68,16.211
	c-3.32,0.586-5.469-1.562-7.812-3.32c-57.812-40.234-115.82-80.664-173.633-120.898c-19.727-13.672-39.258-27.344-60.547-41.992
	c0,5.273,0,8.789,0,12.305c0,55.859,0,111.914,0,167.773c0,49.414,0.195,98.828,0.391,148.242c0,1.367-0.195,2.734-0.195,4.102
	c-32.422,6.25-59.961-9.18-67.188-37.891c-0.977-4.102-1.367-8.398-1.367-12.5c0-114.648,0.195-229.492-0.195-344.141
	c-0.195-29.102,25.781-54.883,52.93-50.781c0.977,0.977,1.758,1.953,2.734,2.734c82.227,60.938,164.453,121.875,246.484,182.812
	c4.883,3.711,7.812,3.125,12.305-0.195c51.172-37.891,102.539-75.586,153.711-113.281
	C693.555,327.539,725.781,303.32,758.008,279.297z"/>
</svg>
