<?xml version="1.0" ?><!DOCTYPE svg  PUBLIC '-//W3C//DTD SVG 1.1//EN'  'http://www.w3.org/Graphics/SVG/1.1/DTD/svg11.dtd'><svg enable-background="new 0 0 512 512" id="Layer_1" version="1.1" viewBox="0 0 512 512" xml:space="preserve" xmlns="http://www.w3.org/2000/svg" xmlns:xlink="http://www.w3.org/1999/xlink"><g><path d="M256.7,507.9C118.9,507.8,7.9,395.2,8.5,255C9.2,117,120.8,4.6,260.1,6.2c136.2,1.6,246.6,113.4,245.4,253   C504.4,396.7,394,507.7,256.7,507.9z M256.9,25.8c-124-0.3-227.3,100.6-228.8,228.3C26.5,384.6,130.7,487,254.6,488.2   c125.7,1.2,230.5-100.5,231.2-228.8C486.6,129.4,384.4,25.8,256.9,25.8z" fill="#04AFEF"/><path d="M95.4,253.8c0.2-2.8-0.1-7,0.7-11.1c1.8-8.4-0.5-15.6-3.7-23.4c-21.9-54.4,9.9-115.9,66.9-130.2   c23-5.8,45.3-3.4,66.6,7c3.3,1.6,6.4,2.2,10,1.8c66.2-7.1,127.3,24.8,158.8,83.5c15.6,29,21.1,60.1,17.3,92.8   c-0.5,4.2,0.1,7.7,2.2,11.3c28.3,51.1,3.7,117.3-51.3,137.5c-29.5,10.9-57.9,8-85-7.7c-2.4-1.4-4.6-2-7.4-1.7   c-72.5,7.7-141.8-36.3-165.9-105.1C98.5,291.3,95.7,273.5,95.4,253.8z M109.5,255.7c0.7,41.7,15.6,77.4,46.2,105.8   c31.9,29.7,70.1,42,113.3,38.1c6.4-0.6,11.2,0.7,16.6,3.9c25.9,15,53,16.6,79.8,3.2c45.2-22.6,59.8-76,33.4-119.7   c-1.7-2.8-2.1-5.3-1.6-8.4c5-30.6,0.7-59.9-13.3-87.4c-28.8-56.5-85.7-86.6-148.7-79c-5.4,0.7-9.5-0.4-14.1-2.7   c-22.3-11.3-45.5-12.8-68.6-3.4c-47.9,19.5-66.8,73.1-42.2,118.7c1.4,2.5,1.8,4.8,1.2,7.6C110,240,109.6,247.9,109.5,255.7z" fill="#04AFEF"/><path d="M252.7,345.2c-20.9-0.2-40.8-3.8-57.7-17.3c-7.8-6.2-13.4-13.8-14.4-24.2c-0.7-7,1.3-13.1,7.7-16.6   c6.3-3.5,12.9-3.2,18.8,1.1c6,4.3,9.8,10.8,14.7,16.2c13.4,14.5,42.5,16,56.5,2.8c10.2-9.7,8.1-24.2-4.8-29.9   c-9.9-4.3-20.8-5.7-31.2-8.6c-11.4-3.2-23.1-5.1-33.9-10c-17.6-8-27.3-21.4-27.8-40.8c-0.5-18.6,6.8-33.4,22.9-43.2   c28.8-17.5,74-14.8,100.6,5.9c5.5,4.3,10,9.2,12.1,16.1c2.5,8.7,0.6,15.6-5.6,19.5c-7.8,4.9-16.5,4.4-23-1.7   c-3.4-3.2-6.5-6.7-9.8-10c-10.8-10.8-34-14.5-47.6-7.6c-2.7,1.4-5.1,3.1-7.1,5.4c-6.8,7.7-5.3,18,3.5,23.5   c6.2,3.9,13.1,5.6,20.1,7.3c14.4,3.5,29.1,5.7,43.1,10.5c22.1,7.5,34,22.9,34.5,44.5c0.5,23.9-11.1,41.8-32.8,50.4   C278.9,343.5,266,345.3,252.7,345.2z" fill="#04AFEF"/></g></svg>